<?xml version="1.0" encoding="UTF-8" standalone="no"?>
<svg
   xmlns:dc="http://purl.org/dc/elements/1.1/"
   xmlns:cc="http://creativecommons.org/ns#"
   xmlns:rdf="http://www.w3.org/1999/02/22-rdf-syntax-ns#"
   xmlns:svg="http://www.w3.org/2000/svg"
   xmlns="http://www.w3.org/2000/svg"
   xmlns:sodipodi="http://sodipodi.sourceforge.net/DTD/sodipodi-0.dtd"
   xmlns:inkscape="http://www.inkscape.org/namespaces/inkscape"
   width="24"
   height="24"
   viewBox="0 0 24 24"
   fill="none"
   stroke="currentColor"
   stroke-width="2"
   stroke-linecap="round"
   stroke-linejoin="round"
   class="feather feather-phone-outgoing"
   version="1.1"
   id="svg885"
   sodipodi:docname="phone-outgoing-blue.svg"
   inkscape:export-filename="/home/emschwartz/code/turbo-vpb/extension/icons/phone-outgoing-blue-16.png"
   inkscape:export-xdpi="12"
   inkscape:export-ydpi="12"
   inkscape:version="1.0.1 (3bc2e813f5, 2020-09-07)">
  <metadata
     id="metadata891">
    <rdf:RDF>
      <cc:Work
         rdf:about="">
        <dc:format>image/svg+xml</dc:format>
        <dc:type
           rdf:resource="http://purl.org/dc/dcmitype/StillImage" />
        <dc:title></dc:title>
      </cc:Work>
    </rdf:RDF>
  </metadata>
  <defs
     id="defs889" />
  <sodipodi:namedview
     pagecolor="#ffffff"
     bordercolor="#666666"
     borderopacity="1"
     objecttolerance="10"
     gridtolerance="10"
     guidetolerance="10"
     inkscape:pageopacity="0"
     inkscape:pageshadow="2"
     inkscape:window-width="2560"
     inkscape:window-height="1355"
     id="namedview887"
     showgrid="false"
     inkscape:zoom="38.25"
     inkscape:cx="24.23175"
     inkscape:cy="13.045752"
     inkscape:window-x="2559"
     inkscape:window-y="0"
     inkscape:window-maximized="1"
     inkscape:current-layer="svg885" />
  <g
     id="g1457"
     transform="translate(-0.55597926,0.5359787)">
    <polyline
       points="23 7 23 1 17 1"
       id="polyline879"
       style="stroke:#228ae6;stroke-opacity:1" />
    <line
       x1="16"
       y1="8"
       x2="23"
       y2="1"
       id="line881"
       style="stroke:#228ae6;stroke-opacity:1" />
    <path
       d="m 22,16.92 v 3 a 2,2 0 0 1 -2.18,2 19.79,19.79 0 0 1 -8.63,-3.07 19.5,19.5 0 0 1 -6,-6 A 19.79,19.79 0 0 1 2.12,4.18 2,2 0 0 1 4.11,2 h 3 a 2,2 0 0 1 2,1.72 12.84,12.84 0 0 0 0.7,2.81 2,2 0 0 1 -0.45,2.11 L 8.09,9.91 a 16,16 0 0 0 6,6 l 1.27,-1.27 a 2,2 0 0 1 2.11,-0.45 12.84,12.84 0 0 0 2.81,0.7 2,2 0 0 1 1.72,2.03 z"
       id="path883"
       style="fill:#228ae6;fill-opacity:1;stroke:#228ae6;stroke-opacity:1" />
  </g>
</svg>
